<?xml version="1.0" encoding="utf-8"?>
<!-- Generator: Adobe Illustrator 27.5.0, SVG Export Plug-In . SVG Version: 6.00 Build 0)  -->
<svg version="1.1" xmlns="http://www.w3.org/2000/svg" xmlns:xlink="http://www.w3.org/1999/xlink" x="0px" y="0px"
	 viewBox="0 0 3710 3710" style="enable-background:new 0 0 3710 3710;" xml:space="preserve">
<g id="Background">
	<g>
		<g>
			<rect style="fill:#FFFFFF;" width="3710" height="3710"/>
		</g>
	</g>
</g>
<g id="Illustration">
	<g>
		<linearGradient id="SVGID_1_" gradientUnits="userSpaceOnUse" x1="3611.2551" y1="4065.2729" x2="1104.8005" y2="952.4136">
			<stop  offset="0" style="stop-color:#DAE3FE"/>
			<stop  offset="1" style="stop-color:#E9EFFD"/>
		</linearGradient>
		<path style="fill:url(#SVGID_1_);" d="M2929.452,2832.302c-57.997,60.317-112.872,99.214-156.229,129.946
			c-509.644,361.246-1112.688,255.945-1240.852,230.229c-189.258-37.974-555.089-111.376-819.578-418.643
			c-400.15-464.869-337.841-1197.257-27.457-1680.717c56.774-88.433,356.671-579.257,966.21-657.969
			c368.887-47.636,798.89,48.44,1110.286,306.169C3415.482,1282.312,3368.948,2375.219,2929.452,2832.302z"/>
		<g>
			<g>
				<path style="fill:#BDD0FB;" d="M1596.805,3005.922c-17.825-321.259-136.968-614.319-559.945-822.808
					C1036.859,2183.114,971.21,2971.187,1596.805,3005.922z"/>
				<path style="opacity:0.51;fill:#FFFFFF;" d="M1480.654,2866.46c-0.857,0-1.715-0.323-2.376-0.967
					c-239.244-233.497-388.717-576.054-390.2-579.488c-0.745-1.725,0.05-3.729,1.775-4.474c1.715-0.744,3.729,0.047,4.474,1.775
					c1.476,3.42,150.444,344.778,388.704,577.314c1.346,1.313,1.373,3.47,0.06,4.813
					C1482.422,2866.117,1481.538,2866.46,1480.654,2866.46z"/>
			</g>
			<g>
				<path style="fill:#BDD0FB;" d="M2334.19,2985.867c288.885,26.661,566.043-40.776,808.026-390.4
					C3142.216,2595.467,2448.047,2432.514,2334.19,2985.867z"/>
				<path style="opacity:0.51;fill:#FFFFFF;" d="M2498.1,2891.491c-0.781,0-1.562-0.266-2.2-0.808
					c-1.436-1.217-1.612-3.364-0.396-4.796c86.363-101.798,227.76-166.481,331.174-202.819
					c111.892-39.316,204.684-54.851,205.611-55c1.875-0.333,3.606,0.95,3.909,2.802c0.306,1.855-0.947,3.606-2.802,3.912
					c-3.676,0.608-369.2,62.785-532.7,255.507C2500.021,2891.082,2499.063,2891.491,2498.1,2891.491z"/>
			</g>
			
				<linearGradient id="SVGID_00000121255194314192785640000001894719690149355690_" gradientUnits="userSpaceOnUse" x1="2065.5413" y1="2407.1714" x2="2555.6404" y2="1358.9028">
				<stop  offset="0" style="stop-color:#09005D"/>
				<stop  offset="1" style="stop-color:#1A0F91"/>
			</linearGradient>
			<polygon style="fill:url(#SVGID_00000121255194314192785640000001894719690149355690_);" points="1630.302,2377.036 
				1569.561,2921.792 2274.268,2921.792 2182.479,2377.036 			"/>
			<g>
				
					<linearGradient id="SVGID_00000071517715786455127770000003155817773661473674_" gradientUnits="userSpaceOnUse" x1="1853.0118" y1="514.4775" x2="1853.0118" y2="1624.0087">
					<stop  offset="0" style="stop-color:#09005D"/>
					<stop  offset="1" style="stop-color:#1A0F91"/>
				</linearGradient>
				<path style="fill:url(#SVGID_00000071517715786455127770000003155817773661473674_);" d="M446.521,1034.875v1247.632
					c0,102.635,81.787,186.565,184.388,189.211c455.696,11.75,2049.501,40.243,2483.293,33.849
					c74.558-1.099,134.956-60.763,137.107-135.297c8.365-289.842,21.95-986.815-28.324-1310.392
					c-10.587-68.142-68.105-119.097-137.029-121.301c-381.816-12.215-2071.354-51-2504.944-41.262
					C506.232,898.992,446.521,960.076,446.521,1034.875z"/>
				<path style="fill:#91B3FA;" d="M524.806,1028.801v1185.337c0,59.924,48.102,108.75,108.019,109.647l2418.969,29.885
					c59.404,0.888,108.096-46.904,108.317-106.313l4.047-1174.746c0.158-42.479-33.684-77.285-76.151-78.319L611.432,944.259
					C563.934,943.103,524.806,981.291,524.806,1028.801z"/>
				<path style="opacity:0.65;fill:#FFFFFF;" d="M3178.322,2402.298c-0.02,0-0.037,0-0.057,0L524.75,2357.086
					c-1.881-0.033-3.38-1.582-3.347-3.46c0.037-1.881,1.745-3.377,3.46-3.347l2653.515,45.212c1.881,0.033,3.38,1.582,3.347,3.46
					C3181.692,2400.813,3180.177,2402.298,3178.322,2402.298z"/>
				<path style="opacity:0.65;fill:#FFFFFF;" d="M1877.74,2457.518c-17.1,0-31.013-13.913-31.013-31.013
					c0-17.101,13.913-31.013,31.013-31.013c17.101,0,31.014,13.913,31.014,31.013
					C1908.754,2443.605,1894.841,2457.518,1877.74,2457.518z M1877.74,2402.298c-13.348,0-24.206,10.858-24.206,24.207
					c0,13.348,10.859,24.207,24.206,24.207c13.348,0,24.207-10.859,24.207-24.207
					C1901.947,2413.156,1891.088,2402.298,1877.74,2402.298z"/>
			</g>
			<g>
				<path style="fill:#7D97F4;" d="M2291.689,3000.985c309.876-153.826,548.931-395.805,575.599-902.145
					C2867.289,2098.84,2060.762,2368.11,2291.689,3000.985z"/>
				<path style="opacity:0.51;fill:#FFFFFF;" d="M2341.809,2886.688c-0.372,0-0.754-0.06-1.127-0.193
					c-1.775-0.622-2.706-2.563-2.084-4.337c73.969-210.869,183.897-373.451,263.091-472.71
					c85.835-107.585,155.154-166.115,155.845-166.694c1.446-1.2,3.59-1.01,4.796,0.422c1.207,1.439,1.017,3.586-0.422,4.796
					c-2.742,2.3-275.974,234.727-416.889,636.439C2344.528,2885.811,2343.215,2886.688,2341.809,2886.688z"/>
			</g>
			<g>
				
					<linearGradient id="SVGID_00000161622143967951763390000018391911969572427147_" gradientUnits="userSpaceOnUse" x1="2162.0986" y1="4227.0806" x2="1991.9255" y2="3396.6338">
					<stop  offset="0" style="stop-color:#09005D"/>
					<stop  offset="1" style="stop-color:#1A0F91"/>
				</linearGradient>
				<path style="fill:url(#SVGID_00000161622143967951763390000018391911969572427147_);" d="M2426.061,3033.249H1394.675
					c-28.02,0-49.061-19.947-43.644-41.373l13.234-52.34c3.98-15.74,21.296-27.296,41.864-27.938l994.293-31.026
					c21.488-0.67,40.513,10.736,45.196,27.094l23.858,83.365C2475.675,3012.69,2454.533,3033.249,2426.061,3033.249z"/>
				<path style="fill:#FFFFFF;" d="M1949.891,2925.818c-1.858,0-3.377-1.492-3.403-3.354c-0.027-1.881,1.476-3.427,3.354-3.453
					l42.607-0.622c0.017,0,0.033,0,0.05,0c1.858,0,3.377,1.492,3.403,3.354c0.027,1.881-1.476,3.427-3.354,3.453l-42.607,0.622
					C1949.925,2925.818,1949.908,2925.818,1949.891,2925.818z"/>
				<path style="fill:#FFFFFF;" d="M1389.216,3004.434c-0.176,0-0.359-0.013-0.538-0.043c-1.858-0.296-3.121-2.041-2.825-3.896
					l6.079-38.066c3.267-20.477,20.69-35.56,41.423-35.866l451.911-6.608c0.017,0,0.033,0,0.05,0c1.858,0,3.377,1.492,3.404,3.354
					c0.027,1.881-1.476,3.427-3.354,3.453l-451.911,6.608c-17.42,0.256-32.054,12.926-34.802,30.129l-6.079,38.066
					C1392.307,3003.24,1390.861,3004.434,1389.216,3004.434z"/>
			</g>
		</g>
		<g>
			<g>
				
					<linearGradient id="SVGID_00000001650790011560329340000003124363677703393165_" gradientUnits="userSpaceOnUse" x1="889.0703" y1="-60.3512" x2="173.3246" y2="1723.3326" gradientTransform="matrix(0.9574 -0.2888 0.2888 0.9574 1906.0146 448.3311)">
					<stop  offset="0" style="stop-color:#4042E2"/>
					<stop  offset="1" style="stop-color:#4F52FF"/>
				</linearGradient>
				<path style="fill:url(#SVGID_00000001650790011560329340000003124363677703393165_);" d="M2681.796,523.653
					c15.422,0.73,30.985,2.143,46.252,4.194c2.094,0.281,4.14,0.096,6.042-0.477c5.216-1.573,9.303-6.07,10.074-11.825
					c1.056-7.846-4.451-15.065-12.301-16.12c-16.075-2.159-32.467-3.644-48.708-4.413c-7.912-0.374-14.627,5.734-14.999,13.644
					C2667.779,516.562,2673.888,523.277,2681.796,523.653z"/>
				
					<linearGradient id="SVGID_00000173860151151512557360000005440300730988851590_" gradientUnits="userSpaceOnUse" x1="484.2922" y1="-222.776" x2="-231.4353" y2="1560.8624" gradientTransform="matrix(0.9574 -0.2888 0.2888 0.9574 1906.0146 448.3311)">
					<stop  offset="0" style="stop-color:#4042E2"/>
					<stop  offset="1" style="stop-color:#4F52FF"/>
				</linearGradient>
				<path style="fill:url(#SVGID_00000173860151151512557360000005440300730988851590_);" d="M2280.131,653.71
					c-5.48-5.718-14.554-5.912-20.274-0.431c-11.719,11.233-23.095,23.112-33.815,35.295c-5.228,5.946-4.649,15.002,1.296,20.235
					c3.862,3.398,9.037,4.34,13.624,2.957c2.475-0.747,4.779-2.167,6.612-4.252c10.184-11.577,20.993-22.857,32.128-33.533
					C2285.417,668.5,2285.607,659.422,2280.131,653.71z"/>
				
					<linearGradient id="SVGID_00000054249772399239728260000009476334251486225045_" gradientUnits="userSpaceOnUse" x1="370.0713" y1="-268.62" x2="-345.6636" y2="1515.0369" gradientTransform="matrix(0.9574 -0.2888 0.2888 0.9574 1906.0146 448.3311)">
					<stop  offset="0" style="stop-color:#4042E2"/>
					<stop  offset="1" style="stop-color:#4F52FF"/>
				</linearGradient>
				<path style="fill:url(#SVGID_00000054249772399239728260000009476334251486225045_);" d="M2104.318,977.718
					c-7.839-1.058-15.069,4.428-16.14,12.274c-2.19,16.091-3.704,32.471-4.5,48.681c-0.39,7.909,5.708,14.634,13.614,15.028
					c1.685,0.082,3.32-0.13,4.847-0.591c5.641-1.702,9.872-6.803,10.178-13.026c0.757-15.396,2.195-30.946,4.274-46.226
					C2117.659,986.013,2112.162,978.786,2104.318,977.718z"/>
				
					<linearGradient id="SVGID_00000098184141940532257230000017394699613525287345_" gradientUnits="userSpaceOnUse" x1="422.4171" y1="-247.6075" x2="-293.3137" y2="1536.0396" gradientTransform="matrix(0.9574 -0.2888 0.2888 0.9574 1906.0146 448.3311)">
					<stop  offset="0" style="stop-color:#4042E2"/>
					<stop  offset="1" style="stop-color:#4F52FF"/>
				</linearGradient>
				<path style="fill:url(#SVGID_00000098184141940532257230000017394699613525287345_);" d="M2197.711,747.584
					c-6.612-4.364-15.506-2.535-19.861,4.078c-8.952,13.57-17.419,27.67-25.165,41.898c-3.788,6.952-1.221,15.659,5.737,19.446
					c3.504,1.909,7.452,2.204,10.995,1.135c3.484-1.051,6.573-3.422,8.451-6.872c7.363-13.523,15.408-26.924,23.92-39.821
					C2206.146,760.834,2204.32,751.943,2197.711,747.584z"/>
				
					<linearGradient id="SVGID_00000053531808455133964930000005951231785048355726_" gradientUnits="userSpaceOnUse" x1="773.9547" y1="-106.5317" x2="58.2361" y2="1677.0846" gradientTransform="matrix(0.9574 -0.2888 0.2888 0.9574 1906.0146 448.3311)">
					<stop  offset="0" style="stop-color:#4042E2"/>
					<stop  offset="1" style="stop-color:#4F52FF"/>
				</linearGradient>
				<path style="fill:url(#SVGID_00000053531808455133964930000005951231785048355726_);" d="M2560.352,531.597
					c15.201-2.719,30.691-4.823,46.038-6.241c0.979-0.09,1.925-0.282,2.831-0.556c6.392-1.928,10.762-8.142,10.122-15.044
					c-0.729-7.883-7.713-13.685-15.6-12.955c-16.147,1.496-32.447,3.71-48.443,6.57c-7.81,1.361-12.98,8.846-11.59,16.64
					C2545.106,527.802,2552.554,532.99,2560.352,531.597z"/>
				
					<linearGradient id="SVGID_00000155833976235279421600000013773911753044596402_" gradientUnits="userSpaceOnUse" x1="383.7213" y1="-263.1415" x2="-332.0118" y2="1520.5109" gradientTransform="matrix(0.9574 -0.2888 0.2888 0.9574 1906.0146 448.3311)">
					<stop  offset="0" style="stop-color:#4042E2"/>
					<stop  offset="1" style="stop-color:#4F52FF"/>
				</linearGradient>
				<path style="fill:url(#SVGID_00000155833976235279421600000013773911753044596402_);" d="M2138.099,857.392
					c-7.413-2.784-15.678,0.961-18.473,8.362c-5.721,15.192-10.857,30.822-15.269,46.454c-2.146,7.62,2.291,15.542,9.911,17.689
					c2.726,0.769,5.491,0.696,8.017-0.066c4.534-1.368,8.292-4.946,9.675-9.839c4.183-14.856,9.065-29.701,14.5-44.128
					C2149.251,868.454,2145.506,860.183,2138.099,857.392z"/>
				
					<linearGradient id="SVGID_00000132771047030292983810000011231956510172589700_" gradientUnits="userSpaceOnUse" x1="382.8836" y1="-263.4828" x2="-332.8524" y2="1520.1772" gradientTransform="matrix(0.9574 -0.2888 0.2888 0.9574 1906.0146 448.3311)">
					<stop  offset="0" style="stop-color:#4042E2"/>
					<stop  offset="1" style="stop-color:#4F52FF"/>
				</linearGradient>
				<path style="fill:url(#SVGID_00000132771047030292983810000011231956510172589700_);" d="M2098.3,1102.493
					c-7.913,0.743-13.7,7.689-12.986,15.575c1.458,16.12,3.635,32.416,6.468,48.432c1.381,7.796,8.823,12.998,16.621,11.618
					c0.565-0.101,1.118-0.233,1.657-0.395c6.86-2.069,11.243-8.989,9.962-16.219c-2.696-15.22-4.766-30.7-6.152-46.024
					C2113.158,1107.599,2106.187,1101.781,2098.3,1102.493z"/>
				
					<linearGradient id="SVGID_00000121257879542660245990000001486216073315675293_" gradientUnits="userSpaceOnUse" x1="566.3107" y1="-189.8611" x2="-149.4154" y2="1593.7738" gradientTransform="matrix(0.9574 -0.2888 0.2888 0.9574 1906.0146 448.3311)">
					<stop  offset="0" style="stop-color:#4042E2"/>
					<stop  offset="1" style="stop-color:#4F52FF"/>
				</linearGradient>
				<path style="fill:url(#SVGID_00000121257879542660245990000001486216073315675293_);" d="M2333.355,627.846
					c1.482-0.447,2.917-1.149,4.246-2.105c12.498-9.018,25.539-17.602,38.766-25.51c6.797-4.068,9.01-12.873,4.947-19.667
					c-4.067-6.799-12.854-8.975-19.667-4.943c-13.927,8.331-27.662,17.37-40.821,26.867c-6.421,4.633-7.872,13.593-3.238,20.017
					C2321.261,627.598,2327.661,629.563,2333.355,627.846z"/>
				
					<linearGradient id="SVGID_00000078735862995430010430000003186395108236167357_" gradientUnits="userSpaceOnUse" x1="664.5378" y1="-150.4414" x2="-51.1843" y2="1633.1837" gradientTransform="matrix(0.9574 -0.2888 0.2888 0.9574 1906.0146 448.3311)">
					<stop  offset="0" style="stop-color:#4042E2"/>
					<stop  offset="1" style="stop-color:#4F52FF"/>
				</linearGradient>
				<path style="fill:url(#SVGID_00000078735862995430010430000003186395108236167357_);" d="M2442.178,566.669
					c0.486-0.146,0.971-0.321,1.449-0.519c14.193-5.989,28.829-11.445,43.511-16.213c7.535-2.442,11.655-10.529,9.21-18.063
					c-2.414-7.432-10.323-11.545-17.771-9.299c-0.096,0.029-0.196,0.059-0.291,0.094c-15.458,5.014-30.868,10.756-45.804,17.057
					c-7.296,3.083-10.714,11.491-7.636,18.788C2427.72,565.326,2435.251,568.758,2442.178,566.669z"/>
				
					<linearGradient id="SVGID_00000181794410575498608500000013172178661621412268_" gradientUnits="userSpaceOnUse" x1="420.5941" y1="-248.352" x2="-295.1443" y2="1535.3138" gradientTransform="matrix(0.9574 -0.2888 0.2888 0.9574 1906.0146 448.3311)">
					<stop  offset="0" style="stop-color:#4042E2"/>
					<stop  offset="1" style="stop-color:#4F52FF"/>
				</linearGradient>
				<path style="fill:url(#SVGID_00000181794410575498608500000013172178661621412268_);" d="M2138.155,1234.539
					c-2.401-7.447-10.378-11.765-17.836-9.516c-0.089,0.027-0.178,0.054-0.269,0.081c-7.578,2.286-11.615,10.701-9.185,18.239
					c4.998,15.491,10.838,31.355,17.108,46.287c2.863,6.828,10.368,10.153,17.306,8.06c0.476-0.144,0.884-0.542,1.352-0.741
					c7.304-3.063,10.752-11.426,7.687-18.726C2148.366,1264.038,2142.902,1249.258,2138.155,1234.539z"/>
				
					<linearGradient id="SVGID_00000039108299544854171760000016197510629585843374_" gradientUnits="userSpaceOnUse" x1="993.3607" y1="-18.4982" x2="277.6168" y2="1765.1814" gradientTransform="matrix(0.9574 -0.2888 0.2888 0.9574 1906.0146 448.3311)">
					<stop  offset="0" style="stop-color:#4042E2"/>
					<stop  offset="1" style="stop-color:#4F52FF"/>
				</linearGradient>
				<path style="fill:url(#SVGID_00000039108299544854171760000016197510629585843374_);" d="M2841.754,540.453
					c2.45-7.525-1.669-15.618-9.198-18.068c-7.397-2.408-14.961-4.701-22.494-6.816c-7.625-2.157-15.543,2.295-17.684,9.92
					c-2.144,7.62,2.3,15.539,9.922,17.68c7.16,2.017,14.354,4.193,21.382,6.484c2.891,0.941,5.862,0.91,8.564,0.095
					C2836.589,548.439,2840.244,545.096,2841.754,540.453z"/>
			</g>
			
				<linearGradient id="SVGID_00000142888879925104966780000016765632196207669637_" gradientUnits="userSpaceOnUse" x1="861.5435" y1="-71.438" x2="145.7886" y2="1712.269" gradientTransform="matrix(0.9574 -0.2888 0.2888 0.9574 1906.0146 448.3311)">
				<stop  offset="0" style="stop-color:#4042E2"/>
				<stop  offset="1" style="stop-color:#4F52FF"/>
			</linearGradient>
			<path style="fill:url(#SVGID_00000142888879925104966780000016765632196207669637_);" d="M2602.566,1608.65
				c-15.105-1.481-30.328-3.629-45.242-6.377c-7.795-1.439-15.264,3.709-16.699,11.501c-1.435,7.785,3.712,15.259,11.498,16.695
				c15.707,2.896,31.739,5.156,47.644,6.717c1.923,0.186,3.793-0.009,5.537-0.535c5.396-1.627,9.546-6.378,10.131-12.334
				C2616.209,1616.44,2610.447,1609.42,2602.566,1608.65z"/>
			<g>
				
					<linearGradient id="SVGID_00000015336655582162322770000009461846205650516866_" gradientUnits="userSpaceOnUse" x1="1366.2794" y1="153.4469" x2="650.5422" y2="1937.1096" gradientTransform="matrix(0.9574 -0.2888 0.2888 0.9574 1906.0146 448.3311)">
					<stop  offset="0" style="stop-color:#4042E2"/>
					<stop  offset="1" style="stop-color:#4F52FF"/>
				</linearGradient>
				<path style="fill:url(#SVGID_00000015336655582162322770000009461846205650516866_);" d="M3194.102,854.275
					c3.12,6.424,10.399,9.469,17.025,7.471c0.722-0.218,1.437-0.492,2.136-0.832c7.123-3.458,10.096-12.035,6.639-19.159
					c-3.397-7.001-7.002-14.051-10.705-20.947c-3.746-6.973-12.413-9.605-19.417-5.843c-6.975,3.747-9.591,12.439-5.844,19.417
					C3187.458,840.93,3190.878,847.625,3194.102,854.275z"/>
				
					<linearGradient id="SVGID_00000173863301904064461450000001599272604357098647_" gradientUnits="userSpaceOnUse" x1="1440.3221" y1="183.159" x2="724.5862" y2="1966.8188" gradientTransform="matrix(0.9574 -0.2888 0.2888 0.9574 1906.0146 448.3311)">
					<stop  offset="0" style="stop-color:#4042E2"/>
					<stop  offset="1" style="stop-color:#4F52FF"/>
				</linearGradient>
				<path style="fill:url(#SVGID_00000173863301904064461450000001599272604357098647_);" d="M3259.255,1024.701
					c-7.856,0.767-13.649,7.773-12.882,15.656c1.472,15.115,2.31,30.458,2.503,45.609c0.098,7.915,6.597,14.255,14.515,14.153
					c1.378-0.017,2.709-0.226,3.966-0.605c5.963-1.799,10.271-7.374,10.188-13.912c-0.198-15.951-1.084-32.104-2.63-48.016
					C3274.148,1029.703,3267.136,1023.932,3259.255,1024.701z"/>
				
					<linearGradient id="SVGID_00000121999295064467292910000017712336064845682817_" gradientUnits="userSpaceOnUse" x1="1444.0088" y1="184.6418" x2="728.2762" y2="1968.2932" gradientTransform="matrix(0.9574 -0.2888 0.2888 0.9574 1906.0146 448.3311)">
					<stop  offset="0" style="stop-color:#4042E2"/>
					<stop  offset="1" style="stop-color:#4F52FF"/>
				</linearGradient>
				<path style="fill:url(#SVGID_00000121999295064467292910000017712336064845682817_);" d="M3260.711,1147.666
					c-7.843-0.986-15.021,4.584-16.009,12.439c-1.891,15.042-4.454,30.2-7.617,45.059c-1.648,7.744,3.291,15.357,11.036,17.004
					c2.448,0.52,4.877,0.383,7.114-0.292c4.844-1.461,8.766-5.446,9.896-10.747c3.328-15.64,6.027-31.604,8.019-47.449
					C3274.137,1155.824,3268.57,1148.653,3260.711,1147.666z"/>
				
					<linearGradient id="SVGID_00000095333496056407897610000008784558535217179054_" gradientUnits="userSpaceOnUse" x1="1377.1676" y1="157.8266" x2="661.4382" y2="1941.47" gradientTransform="matrix(0.9574 -0.2888 0.2888 0.9574 1906.0146 448.3311)">
					<stop  offset="0" style="stop-color:#4042E2"/>
					<stop  offset="1" style="stop-color:#4F52FF"/>
				</linearGradient>
				<path style="fill:url(#SVGID_00000095333496056407897610000008784558535217179054_);" d="M3163.92,1384.054
					c-8.134,12.796-16.916,25.418-26.099,37.512c-4.79,6.306-3.56,15.3,2.746,20.09c3.8,2.884,8.577,3.584,12.822,2.304
					c2.799-0.844,5.364-2.548,7.264-5.052c9.667-12.726,18.906-26.007,27.469-39.475c4.245-6.686,2.272-15.544-4.412-19.792
					C3177.017,1375.39,3168.16,1377.364,3163.92,1384.054z"/>
				
					<linearGradient id="SVGID_00000109742246084838922450000003229975054624255118_" gradientUnits="userSpaceOnUse" x1="1224.5913" y1="96.6116" x2="508.8665" y2="1880.2433" gradientTransform="matrix(0.9574 -0.2888 0.2888 0.9574 1906.0146 448.3311)">
					<stop  offset="0" style="stop-color:#4042E2"/>
					<stop  offset="1" style="stop-color:#4F52FF"/>
				</linearGradient>
				<path style="fill:url(#SVGID_00000109742246084838922450000003229975054624255118_);" d="M2995.592,1552.182
					c-12.842,8.12-26.168,15.773-39.61,22.752c-7.027,3.652-9.766,12.305-6.116,19.336c3.23,6.215,10.375,9.073,16.848,7.121
					c0.842-0.254,1.674-0.587,2.484-1.007c14.155-7.353,28.192-15.411,41.714-23.96c6.694-4.23,8.691-13.086,4.459-19.782
					C3011.142,1549.949,3002.291,1547.962,2995.592,1552.182z"/>
				
					<linearGradient id="SVGID_00000098222687500418507720000005086755093091929757_" gradientUnits="userSpaceOnUse" x1="1310.1339" y1="130.9293" x2="594.4072" y2="1914.566" gradientTransform="matrix(0.9574 -0.2888 0.2888 0.9574 1906.0146 448.3311)">
					<stop  offset="0" style="stop-color:#4042E2"/>
					<stop  offset="1" style="stop-color:#4F52FF"/>
				</linearGradient>
				<path style="fill:url(#SVGID_00000098222687500418507720000005086755093091929757_);" d="M3089.028,1477.46
					c-10.75,10.741-22.065,21.139-33.637,30.9c-6.052,5.107-6.82,14.154-1.711,20.206c3.804,4.509,9.795,6.083,15.104,4.482
					c1.817-0.548,3.556-1.47,5.098-2.772c12.185-10.279,24.097-21.225,35.413-32.536c5.599-5.596,5.604-14.67,0.01-20.271
					C3103.706,1471.863,3094.627,1471.863,3089.028,1477.46z"/>
				
					<linearGradient id="SVGID_00000115501857694873759680000011037796242419412098_" gradientUnits="userSpaceOnUse" x1="1422.547" y1="176.0332" x2="706.8137" y2="1959.6863" gradientTransform="matrix(0.9574 -0.2888 0.2888 0.9574 1906.0146 448.3311)">
					<stop  offset="0" style="stop-color:#4042E2"/>
					<stop  offset="1" style="stop-color:#4F52FF"/>
				</linearGradient>
				<path style="fill:url(#SVGID_00000115501857694873759680000011037796242419412098_);" d="M3235.058,1267.927
					c-7.457-2.694-15.667,1.169-18.356,8.613c-5.146,14.258-10.971,28.486-17.309,42.302c-3.303,7.197-0.145,15.709,7.053,19.008
					c3.305,1.518,6.885,1.672,10.113,0.698c3.801-1.146,7.112-3.859,8.896-7.749c6.669-14.536,12.797-29.516,18.216-44.517
					C3246.361,1278.832,3242.505,1270.618,3235.058,1267.927z"/>
				
					<linearGradient id="SVGID_00000098910397335473513410000007620095187035835798_" gradientUnits="userSpaceOnUse" x1="1015.0058" y1="12.5233" x2="299.2889" y2="1796.1356" gradientTransform="matrix(0.9574 -0.2888 0.2888 0.9574 1906.0146 448.3311)">
					<stop  offset="0" style="stop-color:#4042E2"/>
					<stop  offset="1" style="stop-color:#4F52FF"/>
				</linearGradient>
				<path style="fill:url(#SVGID_00000098910397335473513410000007620095187035835798_);" d="M2771.384,1632.199
					c-15.086,1.871-30.414,3.131-45.557,3.733c-7.904,0.29-14.072,6.982-13.759,14.895c0.314,7.908,6.983,14.068,14.894,13.753
					c15.945-0.633,32.082-1.955,47.954-3.929c0.824-0.102,1.624-0.273,2.389-0.504c6.567-1.981,10.945-8.455,10.071-15.492
					C2786.401,1636.801,2779.24,1631.222,2771.384,1632.199z"/>
				
					<linearGradient id="SVGID_00000050621446921734586950000009086113779675828385_" gradientUnits="userSpaceOnUse" x1="1124.5555" y1="56.4757" x2="408.8342" y2="1840.099" gradientTransform="matrix(0.9574 -0.2888 0.2888 0.9574 1906.0146 448.3311)">
					<stop  offset="0" style="stop-color:#4042E2"/>
					<stop  offset="1" style="stop-color:#4F52FF"/>
				</linearGradient>
				<path style="fill:url(#SVGID_00000050621446921734586950000009086113779675828385_);" d="M2887.944,1604.547
					c-14.203,5.056-28.841,9.582-43.673,13.518c-7.622,1.995-12.211,9.884-10.18,17.537c2.031,7.653,9.882,12.211,17.535,10.184
					c6.426-1.705,12.8-3.51,19.114-5.415c9.011-2.718,18.036-5.681,26.82-8.809c7.459-2.654,11.356-10.855,8.698-18.319
					C2903.603,1605.784,2895.414,1601.902,2887.944,1604.547z"/>
				
					<linearGradient id="SVGID_00000113325452644807939270000015188307032119148188_" gradientUnits="userSpaceOnUse" x1="1411.7931" y1="171.7088" x2="696.0543" y2="1955.3755" gradientTransform="matrix(0.9574 -0.2888 0.2888 0.9574 1906.0146 448.3311)">
					<stop  offset="0" style="stop-color:#4042E2"/>
					<stop  offset="1" style="stop-color:#4F52FF"/>
				</linearGradient>
				<path style="fill:url(#SVGID_00000113325452644807939270000015188307032119148188_);" d="M3249.128,914.238
					c-2.453-7.526-10.496-11.821-18.07-9.192c-7.531,2.447-11.648,10.539-9.198,18.071c1.243,3.819,2.453,7.666,3.619,11.532
					c3.222,10.681,6.158,21.605,8.727,32.484c1.82,7.705,9.545,12.476,17.249,10.655c0.289-0.069,0.576-0.144,0.858-0.229
					c7.198-2.171,11.551-9.603,9.797-17.018c-2.701-11.44-5.79-22.939-9.178-34.172
					C3251.704,922.299,3250.436,918.26,3249.128,914.238z"/>
			</g>
			
				<linearGradient id="SVGID_00000075128470670476740560000000184756910099088038_" gradientUnits="userSpaceOnUse" x1="759.3935" y1="-112.4045" x2="43.6501" y2="1671.2739" gradientTransform="matrix(0.9574 -0.2888 0.2888 0.9574 1906.0146 448.3311)">
				<stop  offset="0" style="stop-color:#4042E2"/>
				<stop  offset="1" style="stop-color:#4F52FF"/>
			</linearGradient>
			<path style="fill:url(#SVGID_00000075128470670476740560000000184756910099088038_);" d="M2485.083,1583.724
				c-6.995-2.318-14.078-4.826-21.048-7.456c-7.414-2.8-15.677,0.945-18.476,8.352c-2.798,7.407,0.942,15.679,8.352,18.476
				c7.337,2.77,14.793,5.412,22.163,7.851c2.906,0.96,5.904,0.939,8.634,0.115c4.315-1.302,7.955-4.616,9.481-9.224
				C2496.677,1594.318,2492.598,1586.208,2485.083,1583.724z"/>
			<g>
				
					<linearGradient id="SVGID_00000161613042019036289110000001224175461880561577_" gradientUnits="userSpaceOnUse" x1="1673.4626" y1="3686.2688" x2="1785.7827" y2="2729.8455" gradientTransform="matrix(0.981 0.1938 -0.1938 0.981 941.2735 188.9333)">
					<stop  offset="0" style="stop-color:#09005D"/>
					<stop  offset="1" style="stop-color:#1A0F91"/>
				</linearGradient>
				<path style="fill:url(#SVGID_00000161613042019036289110000001224175461880561577_);" d="M3125.469,948.12l-80.706-11.379
					c-15.438-34.376-36.057-65.484-60.629-92.662l-104.17,20.02l-79.612,86.318l70.28,152.172l-177.873-5.945l-103.968,77.411
					l14.114,136.606l-109.332-21.2l-37.219,36.914l-21.004,78.536c-0.74,2.762,0.354,5.687,2.726,7.287l81.101,54.703
					c2.371,1.598,5.495,1.517,7.778-0.202l65.156-49.055c35.6,13.536,73.615,21.492,112.783,22.985l40.784,70.566
					c1.431,2.475,4.276,3.769,7.082,3.224l96.029-18.666c2.805-0.546,4.957-2.813,5.356-5.642l11.38-80.706
					c35.756-16.059,68.021-37.676,95.959-63.564l78.788,21.073c2.76,0.739,5.686-0.356,7.285-2.725l54.703-81.103
					c1.6-2.372,1.519-5.495-0.201-7.778l-49.054-65.155c13.537-35.601,21.492-73.617,22.985-112.784l70.566-40.785
					c2.475-1.43,3.771-4.273,3.224-7.079l-18.666-96.031C3130.567,950.67,3128.301,948.518,3125.469,948.12z"/>
				
					<linearGradient id="SVGID_00000034058262366406128690000018161603950103361705_" gradientUnits="userSpaceOnUse" x1="2637.1694" y1="1140.9698" x2="2815.5034" y2="1140.9698">
					<stop  offset="0" style="stop-color:#4042E2"/>
					<stop  offset="1" style="stop-color:#4F52FF"/>
				</linearGradient>
				<path style="fill:url(#SVGID_00000034058262366406128690000018161603950103361705_);" d="M2750.875,1151.69
					c-34.508,16.229-75.144,3.855-95.297-27.318l-18.409,13.731c23.917,35.768,68.754,51.954,109.979,39.52
					c4.548-1.372,9.058-3.095,13.483-5.173c29.853-14.029,49.349-41.246,54.872-71.458l-23.276-0.825
					C2787.231,1122.01,2772.679,1141.446,2750.875,1151.69z"/>
				
					<linearGradient id="SVGID_00000039852402550050883410000017125260496875150487_" gradientUnits="userSpaceOnUse" x1="2709.0632" y1="1104.265" x2="2961.6875" y2="1104.265">
					<stop  offset="0" style="stop-color:#4042E2"/>
					<stop  offset="1" style="stop-color:#4F52FF"/>
				</linearGradient>
				<path style="fill:url(#SVGID_00000039852402550050883410000017125260496875150487_);" d="M2951.201,1011.343
					c-15.382-50.963-46.908-94.979-90.616-126.233l-7.84,8.501c42.238,29.82,72.693,72.071,87.478,121.067
					c2.27,7.518,4.171,15.198,5.689,23.011c8.664,44.558,3.792,88.665-11.74,128.056c-27.918,70.824-90.28,126.417-170.397,141.978
					c-16.128,3.14-32.566,4.565-48.861,4.232c-3.162-0.058-5.787,2.448-5.85,5.614c-0.012,0.619,0.072,1.219,0.242,1.782
					c0.702,2.315,2.828,4.02,5.375,4.07c0.969,0.017,1.939-0.505,2.909-0.499c0.498,0.007,0.997-0.529,1.495-0.529
					c0.174,0,0.349,0,0.525,0c12.877,0,25.809-0.506,38.597-2.568c2.594-0.419,5.181-0.609,7.76-1.111
					c8.19-1.592,16.239-3.453,24.119-5.83c53.125-16.024,98.749-49.484,130.194-96.108c36.114-53.542,49.216-117.911,36.893-181.313
					C2955.577,1027.263,2953.582,1019.235,2951.201,1011.343z"/>
			</g>
			<g>
				
					<linearGradient id="SVGID_00000097467326054310186970000010352306570710243975_" gradientUnits="userSpaceOnUse" x1="1330.7301" y1="3646.0291" x2="1443.0509" y2="2689.6001" gradientTransform="matrix(0.981 0.1938 -0.1938 0.981 941.2735 188.9333)">
					<stop  offset="0" style="stop-color:#09005D"/>
					<stop  offset="1" style="stop-color:#1A0F91"/>
				</linearGradient>
				<path style="fill:url(#SVGID_00000097467326054310186970000010352306570710243975_);" d="M2519.585,1248.58l-13.448-130.16
					l103.968-77.411l173.297,5.792c2.1,0.07,3.537-2.097,2.656-4.004l-68.36-148.015l79.612-86.318l104.17-20.02
					c-0.986-1.091-1.935-2.218-2.935-3.297l21.074-78.79c0.738-2.76-0.356-5.685-2.725-7.283l-81.105-54.704
					c-2.369-1.6-5.493-1.518-7.776,0.201l-65.156,49.055c-35.6-13.537-73.616-21.493-112.783-22.986l-40.786-70.567
					c-1.431-2.475-4.274-3.77-7.081-3.225l-96.027,18.668c-2.807,0.546-4.958,2.812-5.357,5.643l-11.378,80.706
					c-35.757,16.056-68.023,37.675-95.961,63.563l-78.787-21.073c-2.761-0.74-5.688,0.356-7.287,2.726l-54.703,81.103
					c-1.598,2.37-1.517,5.492,0.202,7.775l49.053,65.156c-13.537,35.601-21.492,73.618-22.983,112.784l-70.568,40.785
					c-2.475,1.43-3.769,4.273-3.224,7.078l18.668,96.03c0.546,2.807,2.812,4.959,5.644,5.358l80.705,11.378
					c16.056,35.755,37.675,68.021,63.562,95.959l-0.067,0.251l37.219-36.914l102.97,19.967
					C2517.056,1254.406,2519.917,1251.788,2519.585,1248.58z"/>
				
					<linearGradient id="SVGID_00000173857870510011337170000014394108263885413566_" gradientUnits="userSpaceOnUse" x1="2537.8301" y1="1005.948" x2="2734.4617" y2="1005.948">
					<stop  offset="0" style="stop-color:#4042E2"/>
					<stop  offset="1" style="stop-color:#4F52FF"/>
				</linearGradient>
				<path style="fill:url(#SVGID_00000173857870510011337170000014394108263885413566_);" d="M2572.925,1068.736
					c-1.823-2.819-3.539-5.735-5.005-8.856c-17.677-37.622-1.453-82.621,36.171-100.299c3.413-1.603,6.898-2.935,10.443-4.004
					c15.391-4.642,31.803-4.234,47.199,1.318c18.946,6.833,34.095,20.631,42.661,38.861c7.432,15.82,8.805,32.927,5.179,48.776
					l23.276,0.825c3.556-19.45,1.335-40.139-7.697-59.36c-11.168-23.773-30.929-41.773-55.637-50.682
					c-24.703-8.911-51.404-7.672-75.178,3.506c-49.072,23.061-70.237,81.741-47.177,130.819c2.135,4.541,4.646,8.778,7.355,12.828
					L2572.925,1068.736z"/>
				
					<linearGradient id="SVGID_00000031202256183097684890000008597515606328058814_" gradientUnits="userSpaceOnUse" x1="2395.3601" y1="986.7617" x2="2777.9316" y2="986.7617">
					<stop  offset="0" style="stop-color:#4042E2"/>
					<stop  offset="1" style="stop-color:#4F52FF"/>
				</linearGradient>
				<path style="fill:url(#SVGID_00000031202256183097684890000008597515606328058814_);" d="M2772.376,825.552
					c-53.543-36.116-117.942-49.221-181.34-36.896c-130.833,25.435-216.651,152.607-191.208,283.487
					c1.572,8.066,3.542,16.024,5.901,23.841c10.225,33.88,27.755,65.147,51.432,91.494c2.12,2.366,5.738,2.545,8.101,0.434
					c1.708-1.533,2.277-3.863,1.656-5.922c-0.233-0.784-0.641-1.527-1.224-2.175c-22.553-25.096-39.246-54.877-48.984-87.149
					c-2.25-7.446-4.128-15.029-5.622-22.715c-24.234-124.657,57.422-245.777,182.137-270.034
					c60.388-11.739,121.736,0.742,172.738,35.144c1.4,0.945,2.752,1.942,4.127,2.913l7.84-8.501
					C2776.09,828.156,2774.261,826.824,2772.376,825.552z"/>
			</g>
		</g>
		<g>
			<g>
				
					<ellipse transform="matrix(0.7071 -0.7071 0.7071 0.7071 -322.7415 860.9656)" style="fill:#FFFFFF;" cx="877.907" cy="820.066" rx="282.007" ry="282.007"/>
				
					<linearGradient id="SVGID_00000082336191182459379170000009761964444577851787_" gradientUnits="userSpaceOnUse" x1="1054.0741" y1="134.639" x2="798.3771" y2="1129.4968">
					<stop  offset="0" style="stop-color:#FE7062"/>
					<stop  offset="1" style="stop-color:#FF928E"/>
				</linearGradient>
				<circle style="fill:url(#SVGID_00000082336191182459379170000009761964444577851787_);" cx="877.907" cy="820.066" r="272.63"/>
				<path style="opacity:0.7;fill:#FFFFFF;" d="M1102.717,709.695c0.436,0,0.879-0.098,1.296-0.31
					c1.421-0.718,1.99-2.45,1.272-3.868c-43.589-86.355-130.714-140.001-227.378-140.001c-15.416,0-30.865,1.389-45.918,4.135
					c-1.565,0.284-2.603,1.783-2.318,3.35c0.285,1.567,1.779,2.613,3.351,2.315c14.713-2.681,29.814-4.039,44.885-4.039
					c94.477,0,179.633,52.433,222.237,136.833C1100.65,709.115,1101.663,709.695,1102.717,709.695z"/>
				
					<ellipse transform="matrix(0.7071 -0.7071 0.7071 0.7071 -328.6815 858.5052)" style="fill:#FFFFFF;" cx="871.967" cy="826.006" rx="230.748" ry="230.748"/>
			</g>
			<g>
				
					<linearGradient id="SVGID_00000123424125939868377690000017054317142531151751_" gradientUnits="userSpaceOnUse" x1="1781.5773" y1="-339.1894" x2="1382.6433" y2="143.104">
					<stop  offset="0" style="stop-color:#E1473D"/>
					<stop  offset="1" style="stop-color:#E9605A"/>
				</linearGradient>
				<path style="fill:url(#SVGID_00000123424125939868377690000017054317142531151751_);" d="M886.25,870.875l-26.114-0.624
					c-7.279-0.174-13.3-6.398-13.681-13.724l-9.56-183.976c-0.198-3.792,1.166-6.918,3.768-9.483
					c2.599-2.563,6.205-3.388,9.97-3.126l44.973,3.132c3.685,0.257,7.204,1.479,9.733,4.36c2.527,2.876,3.848,6.327,3.657,10.034
					l-9.301,180.625C899.323,865.315,893.423,871.046,886.25,870.875z"/>
				
					<linearGradient id="SVGID_00000170984463716819775380000000149086578855752326_" gradientUnits="userSpaceOnUse" x1="1872.0684" y1="-264.3334" x2="1473.1349" y2="217.9594">
					<stop  offset="0" style="stop-color:#E1473D"/>
					<stop  offset="1" style="stop-color:#E9605A"/>
				</linearGradient>
				<path style="fill:url(#SVGID_00000170984463716819775380000000149086578855752326_);" d="M845.95,915.814
					c6.52-6.227,15.695-9.24,27.492-9.052c12.161,0.194,21.379,3.4,27.69,9.605c6.295,6.188,9.435,15.23,9.435,27.14
					c0,11.483-3.209,20.368-9.645,26.668c-6.452,6.319-15.602,9.484-27.481,9.484c-11.655,0-20.793-3.266-27.385-9.814
					c-6.609-6.566-9.921-15.548-9.921-26.932C836.136,931.097,839.412,922.059,845.95,915.814z"/>
			</g>
		</g>
		<g>
			<g>
				
					<linearGradient id="SVGID_00000137105635244379051320000001076850010922613672_" gradientUnits="userSpaceOnUse" x1="1721.9436" y1="715.0142" x2="1969.3864" y2="2115.2444">
					<stop  offset="0" style="stop-color:#09005D"/>
					<stop  offset="1" style="stop-color:#1A0F91"/>
				</linearGradient>
				<path style="fill:url(#SVGID_00000137105635244379051320000001076850010922613672_);" d="M1907.351,697.22L1179.369,1920.4
					c-15.982,26.854,4.908,59.711,38.139,59.984l1443.08,11.876c33.353,0.274,54.868-32.452,39.164-59.574L1984.654,697.63
					C1968.214,669.237,1924.145,669.003,1907.351,697.22z"/>
				
					<linearGradient id="SVGID_00000012435005656345550620000004500861796601511324_" gradientUnits="userSpaceOnUse" x1="2374.0068" y1="899.4832" x2="1093.5807" y2="3865.0027">
					<stop  offset="0" style="stop-color:#FE7062"/>
					<stop  offset="1" style="stop-color:#FF928E"/>
				</linearGradient>
				<path style="fill:url(#SVGID_00000012435005656345550620000004500861796601511324_);" d="M1911.03,770.292l-661.151,1110.889
					c-14.515,24.389,4.458,54.229,34.637,54.477l1310.601,10.785c30.291,0.249,49.831-29.473,35.569-54.105l-649.45-1121.674
					C1966.305,744.878,1926.282,744.665,1911.03,770.292z"/>
			</g>
			<g>
				<g>
					
						<linearGradient id="SVGID_00000093165720841010320010000008442391317016701116_" gradientUnits="userSpaceOnUse" x1="1577.9203" y1="1797.1932" x2="2231.821" y2="207.1834">
						<stop  offset="0" style="stop-color:#09005D"/>
						<stop  offset="1" style="stop-color:#1A0F91"/>
					</linearGradient>
					<path style="fill:url(#SVGID_00000093165720841010320010000008442391317016701116_);" d="M1797.384,1531.505l-32.302,0.42
						v57.678l-55.737,0.93v-57.883l-116.433,1.514v-41.377l119.58-181.54l52.59,0.057v174.938l32.302-0.326V1531.505z
						 M1709.345,1486.804v-47.379c0-7.895,0.305-19.358,0.925-34.389c0.615-15.027,1.112-23.753,1.48-26.176l-1.48,0.005
						c-4.571,10.462-10.072,20.676-16.501,30.649l-49.896,77.95L1709.345,1486.804z"/>
					
						<linearGradient id="SVGID_00000071524449706288941020000001145646416471379344_" gradientUnits="userSpaceOnUse" x1="1746.4689" y1="1866.5107" x2="2400.3699" y2="276.5006">
						<stop  offset="0" style="stop-color:#09005D"/>
						<stop  offset="1" style="stop-color:#1A0F91"/>
					</linearGradient>
					<path style="fill:url(#SVGID_00000071524449706288941020000001145646416471379344_);" d="M2010.411,1448.541
						c0,47.844-7.459,83.356-22.394,106.571c-14.967,23.26-38.069,35.171-69.382,35.701c-30.474,0.516-53.532-11.073-69.099-34.804
						c-15.601-23.775-23.414-59.132-23.414-106.03c0-48.922,7.597-84.997,22.775-108.196c15.149-23.151,38.418-34.692,69.737-34.649
						c30.355,0.041,53.221,12.095,68.667,36.124C2002.719,1367.239,2010.411,1402.322,2010.411,1448.541z M1881.943,1449.543
						c0,33.884,2.806,58.13,8.419,72.73c5.607,14.589,15.035,21.788,28.272,21.604c12.972-0.18,22.328-7.712,28.08-22.591
						c5.747-14.865,8.62-38.968,8.62-72.316c0-33.721-2.903-57.938-8.709-72.654c-5.813-14.724-15.139-22.082-27.99-22.06
						c-13.116,0.022-22.513,7.432-28.182,22.235C1884.78,1391.307,1881.943,1415.662,1881.943,1449.543z"/>
					
						<linearGradient id="SVGID_00000100377835059836598940000010327467988400993972_" gradientUnits="userSpaceOnUse" x1="1952.6157" y1="1951.2892" x2="2606.5171" y2="361.2779">
						<stop  offset="0" style="stop-color:#09005D"/>
						<stop  offset="1" style="stop-color:#1A0F91"/>
					</linearGradient>
					<path style="fill:url(#SVGID_00000100377835059836598940000010327467988400993972_);" d="M2231.929,1525.856l-30.528,0.397
						v56.072l-52.674,0.879v-56.266l-109.996,1.43v-40.213l112.97-176.436l49.7,0.053v170.068l30.528-0.308V1525.856z
						 M2148.727,1482.373v-46.055c0-7.674,0.291-18.818,0.875-33.428c0.584-14.607,1.051-23.089,1.401-25.444l-1.401,0.005
						c-4.319,10.169-9.514,20.097-15.591,29.791l-47.138,75.756L2148.727,1482.373z"/>
				</g>
				<g>
					
						<linearGradient id="SVGID_00000109009206580120583610000013245613132203308467_" gradientUnits="userSpaceOnUse" x1="1607.5643" y1="1809.3845" x2="2261.4656" y2="219.3735">
						<stop  offset="0" style="stop-color:#09005D"/>
						<stop  offset="1" style="stop-color:#1A0F91"/>
					</linearGradient>
					<path style="fill:url(#SVGID_00000109009206580120583610000013245613132203308467_);" d="M1671.626,1833.59l-85.989,2.756
						v-153.62l85.989-1.923v26.544l-54.22,1.304v33.661l50.459-1.321v26.551l-50.459,1.406v39.536l54.22-1.646V1833.59z"/>
					
						<linearGradient id="SVGID_00000130639986929809651470000008567951108841926788_" gradientUnits="userSpaceOnUse" x1="1723.9927" y1="1857.2662" x2="2377.8953" y2="267.2524">
						<stop  offset="0" style="stop-color:#09005D"/>
						<stop  offset="1" style="stop-color:#1A0F91"/>
					</linearGradient>
					<path style="fill:url(#SVGID_00000130639986929809651470000008567951108841926788_);" d="M1739.001,1773.053v58.377
						l-31.282,1.003v-152.437l42.954-0.961c19.95-0.446,34.679,2.977,44.219,10.263c9.525,7.277,14.283,18.542,14.283,33.804
						c0,8.908-2.362,16.895-7.087,23.963c-4.731,7.072-11.431,12.699-20.107,16.884c22.004,33.447,36.305,54.999,42.947,64.726
						l-34.336,1.101l-34.993-57.194L1739.001,1773.053z M1739.001,1746.832l10.062-0.268c9.849-0.263,17.113-2.155,21.794-5.669
						c4.679-3.515,7.019-8.904,7.019-16.172c0-7.196-2.391-12.259-7.17-15.186c-4.782-2.932-12.194-4.278-22.247-4.036l-9.459,0.227
						V1746.832z"/>
					
						<linearGradient id="SVGID_00000034779329605544737940000015280202472197544079_" gradientUnits="userSpaceOnUse" x1="1842.0299" y1="1905.8097" x2="2495.9326" y2="315.7953">
						<stop  offset="0" style="stop-color:#09005D"/>
						<stop  offset="1" style="stop-color:#1A0F91"/>
					</linearGradient>
					<path style="fill:url(#SVGID_00000034779329605544737940000015280202472197544079_);" d="M1879.045,1769.084v57.856
						l-30.726,0.985v-151.074l42.191-0.943c19.597-0.438,34.065,2.958,43.434,10.18c9.357,7.214,14.031,18.38,14.031,33.507
						c0,8.829-2.32,16.744-6.962,23.749c-4.647,7.008-11.229,12.584-19.749,16.729c21.613,33.156,35.661,54.52,42.186,64.162
						l-33.729,1.081l-34.372-56.694L1879.045,1769.084z M1879.045,1743.098l9.884-0.264c9.675-0.258,16.809-2.132,21.408-5.614
						c4.596-3.483,6.894-8.824,6.894-16.026c0-7.132-2.349-12.151-7.043-15.053c-4.697-2.907-11.978-4.243-21.852-4.005
						l-9.291,0.224V1743.098z"/>
					
						<linearGradient id="SVGID_00000042708745764269070270000014581014254341025699_" gradientUnits="userSpaceOnUse" x1="1961.7355" y1="1955.0394" x2="2615.6248" y2="365.0576">
						<stop  offset="0" style="stop-color:#09005D"/>
						<stop  offset="1" style="stop-color:#1A0F91"/>
					</linearGradient>
					<path style="fill:url(#SVGID_00000042708745764269070270000014581014254341025699_);" d="M2114.806,1744.935
						c0,24.579-5.759,43.644-17.289,57.208c-11.548,13.587-28.128,20.733-49.776,21.429c-21.709,0.699-38.422-5.408-50.103-18.344
						c-11.696-12.952-17.552-31.901-17.552-56.834c0-24.932,5.87-44.116,17.602-57.536c11.711-13.4,28.471-20.333,50.246-20.816
						c21.711-0.482,38.277,5.73,49.728,18.621C2109.094,1701.536,2114.806,1720.29,2114.806,1744.935z M2011.75,1747.738
						c0,16.702,3.016,29.19,9.039,37.462c6.018,8.266,15.004,12.213,26.952,11.849c23.898-0.728,35.821-17.814,35.821-51.264
						c0-33.517-11.857-49.994-35.628-49.425c-11.945,0.286-20.966,4.743-27.048,13.369
						C2014.796,1718.366,2011.75,1731.036,2011.75,1747.738z"/>
					
						<linearGradient id="SVGID_00000149342271400219553190000017077570220047302274_" gradientUnits="userSpaceOnUse" x1="2094.2427" y1="2009.5343" x2="2748.1462" y2="419.5176">
						<stop  offset="0" style="stop-color:#09005D"/>
						<stop  offset="1" style="stop-color:#1A0F91"/>
					</linearGradient>
					<path style="fill:url(#SVGID_00000149342271400219553190000017077570220047302274_);" d="M2178.265,1760.605v56.744
						l-29.554,0.947v-148.163l40.583-0.908c18.851-0.422,32.769,2.915,41.784,10.004c9.001,7.08,13.498,18.034,13.498,32.871
						c0,8.66-2.232,16.423-6.698,23.29c-4.471,6.872-10.802,12.337-19.001,16.398c20.794,32.532,34.309,53.495,40.586,62.957
						l-32.449,1.04l-33.067-55.626L2178.265,1760.605z M2178.265,1735.118l9.507-0.253c9.306-0.248,16.169-2.082,20.593-5.495
						c4.421-3.414,6.632-8.651,6.632-15.715c0-6.996-2.26-11.919-6.775-14.767c-4.518-2.853-11.522-4.167-21.021-3.938l-8.937,0.215
						V1735.118z"/>
				</g>
			</g>
		</g>
		<g>
			
				<linearGradient id="SVGID_00000005951715195272139170000007933244466880484240_" gradientUnits="userSpaceOnUse" x1="3666.9775" y1="3057.2366" x2="2967.3955" y2="3818.186" gradientTransform="matrix(1 0 0 1 -2400.0403 0)">
				<stop  offset="0" style="stop-color:#09005D"/>
				<stop  offset="1" style="stop-color:#1A0F91"/>
			</linearGradient>
			<path style="fill:url(#SVGID_00000005951715195272139170000007933244466880484240_);" d="M1045.798,3113.923
				c0,0-7.244,41.015-10.797,81.616c-1.388,15.868,10.845,29.645,26.76,30.308c54.068,2.252,169.723,6.631,211.224,4.779
				c6.239-0.278,10.318-6.665,8.009-12.468l0,0c-1.935-4.862-5.666-8.793-10.421-10.979l-191.04-87.802L1045.798,3113.923z"/>
			
				<linearGradient id="SVGID_00000142868260861504135360000004848564768086498739_" gradientUnits="userSpaceOnUse" x1="3439.9038" y1="3113.7534" x2="3502.0439" y2="3113.7534" gradientTransform="matrix(1 0 0 1 -2400.0403 0)">
				<stop  offset="0" style="stop-color:#FEBBBA"/>
				<stop  offset="1" style="stop-color:#FF928E"/>
			</linearGradient>
			<path style="fill:url(#SVGID_00000142868260861504135360000004848564768086498739_);" d="M1039.863,3089.823l5.821,49.06
				c0,0,33.465,15.578,56.319-1.964l-13.859-54.672L1039.863,3089.823z"/>
			
				<linearGradient id="SVGID_00000005238554941169372030000016735396620054643347_" gradientUnits="userSpaceOnUse" x1="-239.9671" y1="6899.1816" x2="429.8628" y2="6114.1128" gradientTransform="matrix(1 0 0 1 -2400.0403 0)">
				<stop  offset="0" style="stop-color:#020039"/>
				<stop  offset="1" style="stop-color:#090056"/>
			</linearGradient>
			<path style="fill:url(#SVGID_00000005238554941169372030000016735396620054643347_);" d="M1044.238,2167.482
				c-2.514,12.812-13.496,639.334,53.475,920.1c1.093,4.582-1.23,9.303-5.59,11.085c-10.272,4.197-30.409,10.274-54.542,11.085
				c-7.473,0.251-14.174-4.607-16.283-11.781c-19.144-65.141-110.875-391.522-122.841-703.303c-13.371-348.385,0-11.862,0-11.862
				l7.842-215.35L1044.238,2167.482z"/>
			
				<linearGradient id="SVGID_00000173875082040058169030000003783552801810356385_" gradientUnits="userSpaceOnUse" x1="3510.0378" y1="2912.9531" x2="2810.4553" y2="3673.9036" gradientTransform="matrix(1 0 0 1 -2400.0403 0)">
				<stop  offset="0" style="stop-color:#09005D"/>
				<stop  offset="1" style="stop-color:#1A0F91"/>
			</linearGradient>
			<path style="fill:url(#SVGID_00000173875082040058169030000003783552801810356385_);" d="M826.04,3135.32
				c0,0-11.533,20.706-22.698,75.727c-2.016,9.937,4.926,19.447,15.017,20.439c17.853,1.755,45.338,4.013,67.354,3.861
				c10.149-0.07,18.07-8.907,16.846-18.982c-2.438-20.083-10.036-53.033-33.506-78.714L826.04,3135.32z"/>
			
				<linearGradient id="SVGID_00000072246090934873740720000003671280512225175207_" gradientUnits="userSpaceOnUse" x1="3215.9507" y1="3110.5667" x2="3269.603" y2="3110.5667" gradientTransform="matrix(1 0 0 1 -2400.0403 0)">
				<stop  offset="0" style="stop-color:#FEBBBA"/>
				<stop  offset="1" style="stop-color:#FF928E"/>
			</linearGradient>
			<path style="fill:url(#SVGID_00000072246090934873740720000003671280512225175207_);" d="M815.91,3072.218l13.601,74.192
				c0,0,13.448,10.003,40.051,2.751l-6.492-79.826L815.91,3072.218z"/>
			
				<linearGradient id="SVGID_00000080903213556415004610000007408419497333249665_" gradientUnits="userSpaceOnUse" x1="-333.8759" y1="6819.0605" x2="335.952" y2="6033.9941" gradientTransform="matrix(1 0 0 1 -2400.0403 0)">
				<stop  offset="0" style="stop-color:#020039"/>
				<stop  offset="1" style="stop-color:#090056"/>
			</linearGradient>
			<path style="fill:url(#SVGID_00000080903213556415004610000007408419497333249665_);" d="M779.167,2186.708
				c-54.773,330.558,11.881,817.002,34.361,912.212c1.376,5.829,6.081,10.295,11.989,11.274c10.034,1.663,26.555,3.021,42.841-1.709
				c5.612-1.63,9.554-6.692,9.783-12.531c3.016-76.974-2.412-549.516,48.623-736.267c2.586-9.464,8.366-17.718,16.363-23.403
				l99.057-70.421l7.594-113.83L779.167,2186.708z"/>
			<g>
				<g>
					<g>
						<g>
							<g>
								
									<linearGradient id="SVGID_00000023238907177260700430000006029038291228431795_" gradientUnits="userSpaceOnUse" x1="1262.5452" y1="1460.6917" x2="1020.8981" y2="2141.386">
									<stop  offset="0" style="stop-color:#4F52FF"/>
									<stop  offset="1" style="stop-color:#4042E2"/>
								</linearGradient>
								<path style="fill:url(#SVGID_00000023238907177260700430000006029038291228431795_);" d="M1266.818,1715.51
									c-8.327,59.216-17.116,72.824-23.945,73.177c-21.738,1.123-17.356-132.388-96.856-199.923
									c-50.216-42.658-118.805-46.17-172.618-41.195c25.108,90.05,50.217,180.099,75.325,270.149
									c10.965,26.905,58.77,135.72,166.932,168.746c22.022,6.724,54.795,16.731,85.281,3.629
									c60.169-25.86,88.386-131.842,61.482-264.548C1349.771,1720.849,1332.265,1715.844,1266.818,1715.51z"/>
								
									<linearGradient id="SVGID_00000027590816185169035050000017332289973073324424_" gradientUnits="userSpaceOnUse" x1="-9542.8457" y1="3099.4153" x2="-10239.7578" y2="3991.0535" gradientTransform="matrix(0.3133 -0.9497 0.9497 0.3133 1084.4857 -8779.0674)">
									<stop  offset="0" style="stop-color:#FEBBBA"/>
									<stop  offset="1" style="stop-color:#FF928E"/>
								</linearGradient>
								<path style="fill:url(#SVGID_00000027590816185169035050000017332289973073324424_);" d="M1247.651,1484.584l9.955,56.278
									c15.991,68.832,17.513,126.206,9.213,174.649c13.741,0.567,28.162,1.536,43.191,3.017
									c18.533,1.827,36.032,4.242,52.41,7.019c-8.649-70.004-55.232-186.249-55.232-186.249
									C1279.091,1498.745,1275.745,1525.136,1247.651,1484.584z"/>
							</g>
							
								<linearGradient id="SVGID_00000109741098097445104120000013735883953864565920_" gradientUnits="userSpaceOnUse" x1="-9447.9707" y1="3173.5681" x2="-10144.8818" y2="4065.2046" gradientTransform="matrix(0.3133 -0.9497 0.9497 0.3133 1084.4857 -8779.0674)">
								<stop  offset="0" style="stop-color:#FEBBBA"/>
								<stop  offset="1" style="stop-color:#FF928E"/>
							</linearGradient>
							<path style="fill:url(#SVGID_00000109741098097445104120000013735883953864565920_);" d="M1361.446,1365.999
								c-11.275-0.298-22.074,4.548-29.35,13.169l-71.002,84.131c0,0-12.923-2.64-14.134-27.386
								c-1.21-24.748-27.497-27.726-27.497-27.726s3.79,34.513,11.007,85.592c4.128,29.211,21.396,50.532,35.427,63.448
								l41.074-14.138c37.678-53.858,61.067-113.218,74.067-176.576L1361.446,1365.999z"/>
						</g>
						
							<linearGradient id="SVGID_00000036220636069070623760000008208824255800550587_" gradientUnits="userSpaceOnUse" x1="1055.7777" y1="1387.2891" x2="814.1297" y2="2067.9861">
							<stop  offset="0" style="stop-color:#4F52FF"/>
							<stop  offset="1" style="stop-color:#4042E2"/>
						</linearGradient>
						<path style="fill:url(#SVGID_00000036220636069070623760000008208824255800550587_);" d="M692.268,1594.886
							c4.733-1.242,37.072-34.655,41.933-35.582c79.707-15.191,278.657-68.773,411.815,29.46c0.333,2.836,0.543,5.1,0.674,6.977
							c1.292,1.752,3.062,4.694,5.491,9.402c12.574,24.371,27.664,48.055,44.94,70.182c-3.802,3.771-6.959,8.198-9.26,13.129
							c-31.996,68.541-153.287,342.261-131.97,509.648c1.1,8.645-4.782,16.609-13.415,17.803
							c-47.082,6.511-187.302,22.392-259.744-7.524c-4.216-1.741-6.912-5.876-6.847-10.436c0.476-33.584-0.944-179.34-54.38-355.036
							c-1.991-6.549-3.615-13.2-4.915-19.915c-0.659,1.353-1.277,2.69-1.915,4.035L692.268,1594.886z"/>
						
							<linearGradient id="SVGID_00000138535890577254654690000017351963489002490771_" gradientUnits="userSpaceOnUse" x1="774.0545" y1="1287.2773" x2="532.4072" y2="1967.9725">
							<stop  offset="0" style="stop-color:#4F52FF"/>
							<stop  offset="1" style="stop-color:#4042E2"/>
						</linearGradient>
						<path style="fill:url(#SVGID_00000138535890577254654690000017351963489002490771_);" d="M813.909,1544.114
							c-148.643,10.869-179.706,95.811-282.432,43.876l18.19,159.068c38.092,42.069,95.603,70.717,168.072,81.456L813.909,1544.114z
							"/>
					</g>
					<g>
						
							<linearGradient id="SVGID_00000057140245051159005380000004576972065204442810_" gradientUnits="userSpaceOnUse" x1="-5209.3442" y1="2191.1992" x2="-5329.2095" y2="2709.1877" gradientTransform="matrix(0.9659 0.2591 -0.2591 0.9659 6608.8066 617.2191)">
							<stop  offset="0" style="stop-color:#FEBBBA"/>
							<stop  offset="1" style="stop-color:#FF928E"/>
						</linearGradient>
						<path style="fill:url(#SVGID_00000057140245051159005380000004576972065204442810_);" d="M915.474,1400.25
							c-25.469,50.773-36.101,102.483-39.291,150.627c5.478,2.042,78.581,52.752,127.513,3.666
							c-10.46-33.688-8.73-84.406-6.069-136.426L915.474,1400.25z"/>
						<g>
							
								<linearGradient id="SVGID_00000140730144183988777580000014912980029451098550_" gradientUnits="userSpaceOnUse" x1="-1288.6982" y1="1937.7948" x2="-1726.6935" y2="2150.6523" gradientTransform="matrix(-0.9451 0.3269 0.3269 0.9451 -1181.1458 -92.6297)">
								<stop  offset="0" style="stop-color:#FEBBBA"/>
								<stop  offset="1" style="stop-color:#FF928E"/>
							</linearGradient>
							<path style="fill:url(#SVGID_00000140730144183988777580000014912980029451098550_);" d="M1048.09,1266.773
								c1.4,2.266,37.932,174.553,37.932,174.553l-98.816,18.768l-58.886-158.148
								C928.321,1301.946,1024.646,1228.838,1048.09,1266.773z"/>
							
								<linearGradient id="SVGID_00000176012194241292395800000013554983584992945831_" gradientUnits="userSpaceOnUse" x1="-5232.0562" y1="-4192.7793" x2="-4990.6963" y2="-4192.7793" gradientTransform="matrix(0.8506 -0.5257 0.5257 0.8506 7571.9932 2240.2207)">
								<stop  offset="0" style="stop-color:#09005D"/>
								<stop  offset="1" style="stop-color:#1A0F91"/>
							</linearGradient>
							<path style="fill:url(#SVGID_00000176012194241292395800000013554983584992945831_);" d="M966.044,1316.006
								c-2.644,3.619-3.469,8.228-2.238,12.538l24.125,84.441c0.367,1.281,0.887,2.49,1.594,3.62
								c3.897,6.228,17.898,25.057,36.773,9.596c16.087-13.177,31.053-25.066,44.468-28.026c7.833-1.73,15.529,3.393,17.163,11.247
								c3.367,16.177,9.502,48.958,10.863,78.847c0.341,7.491-5.21,13.947-12.653,14.866c-19.64,2.426-58.134,6.015-90.354,1.969
								c-5.293-0.664-9.768-4.173-11.689-9.149c-8.456-21.897-32.405-83.177-41.828-99.436
								c-8.754-15.105-32.006-16.531-42.706-16.34c-4.062,0.072-7.938-1.527-10.756-4.453c-8.452-8.775-21.986-28.611,0.971-49.893
								c5.708-5.291,5.942-14.315,0.769-20.131c-9.268-10.421-17.753-27.592-0.083-46.974
								c17.888-19.621,39.469-16.025,53.324-10.432c6.13,2.475,13.457,0.877,17.472-4.375c1.786-2.336,4.525-4.001,8.722-3.741
								c7.916,0.49,14.686-5.054,15.229-12.966c0.931-13.568,7.325-29.804,30.942-35.6c43.316-10.63,67.311,32.057,68.062,62.859
								c0.751,30.803-46.866,39.657-74.318,35.903C989.732,1287.619,973.33,1306.035,966.044,1316.006z"/>
							
								<linearGradient id="SVGID_00000070101470658809946050000004427966483168469172_" gradientUnits="userSpaceOnUse" x1="-1265.0542" y1="1986.4379" x2="-1703.0518" y2="2199.2966" gradientTransform="matrix(-0.9451 0.3269 0.3269 0.9451 -1181.1458 -92.6297)">
								<stop  offset="0" style="stop-color:#FEBBBA"/>
								<stop  offset="1" style="stop-color:#FF928E"/>
							</linearGradient>
							<path style="fill:url(#SVGID_00000070101470658809946050000004427966483168469172_);" d="M957.075,1428.554
								c0,0-9.195-54.543-31.165-58.503c-21.971-3.96-44.622,12.908-24.447,44.113
								C926.558,1452.979,957.075,1428.554,957.075,1428.554z"/>
						</g>
					</g>
					<g>
						
							<linearGradient id="SVGID_00000107562935393669889780000008764732634966152855_" gradientUnits="userSpaceOnUse" x1="-1515.6021" y1="2285.1416" x2="-1128.2607" y2="2553.7227" gradientTransform="matrix(-0.9999 -0.0105 -0.0105 0.9999 -543.5361 -1035.2291)">
							<stop  offset="0" style="stop-color:#FEBBBA"/>
							<stop  offset="1" style="stop-color:#FF928E"/>
						</linearGradient>
						<path style="fill:url(#SVGID_00000107562935393669889780000008764732634966152855_);" d="M920.839,1232.328
							c3.832-0.157,7.992,0.208,12.579,1.179c10.445,2.213,24.36,7.582,20.736,17.628c-5.443,15.087-33.68,0.991-48.715,25.315
							c-13.248,21.434-2.404,44.711-6.459,67.81c-1.973,11.237-9.193,27.922-19.231,34.485c-4.489,2.935-39.941,8.55-41.88,2.259
							c0,0-9.851-31.971-9.854-31.982c-8.863-28.764,25.191-76.694,42.755-96.072C884.34,1237.979,902.73,1233.069,920.839,1232.328
							z"/>
						<g>
							
								<linearGradient id="SVGID_00000083087476104524008500000017058935973521802669_" gradientUnits="userSpaceOnUse" x1="-1507.7194" y1="2277.3638" x2="-1104.7754" y2="2556.7634" gradientTransform="matrix(-0.9999 -0.0105 -0.0105 0.9999 -543.5361 -1035.2291)">
								<stop  offset="0" style="stop-color:#FEBBBA"/>
								<stop  offset="1" style="stop-color:#FF928E"/>
							</linearGradient>
							<path style="fill:url(#SVGID_00000083087476104524008500000017058935973521802669_);" d="M887.235,1347.769l-33.912,28.23
								c-65.028,27.656-112.272,60.247-146.51,95.508c-12.397-23.32-32.466-50.279-64.461-71.31
								c65.548-32.287,114.343-45.701,114.343-45.701C888.982,1301.295,887.235,1347.769,887.235,1347.769z"/>
							
								<linearGradient id="SVGID_00000101784770672976466610000004486055605738248367_" gradientUnits="userSpaceOnUse" x1="679.1714" y1="1253.5939" x2="437.524" y2="1934.2892">
								<stop  offset="0" style="stop-color:#4F52FF"/>
								<stop  offset="1" style="stop-color:#4042E2"/>
							</linearGradient>
							<path style="fill:url(#SVGID_00000101784770672976466610000004486055605738248367_);" d="M706.812,1471.506
								c-106.908,110.095-75.668,54.149-76.518,147.99c-0.317,34.988-30.68,168.583-30.68,168.583
								c-326.953-141.242-54.104-334.036,42.737-387.883C674.346,1421.228,694.415,1448.186,706.812,1471.506z"/>
						</g>
					</g>
				</g>
			</g>
		</g>
	</g>
</g>
</svg>
