<?xml version="1.0" encoding="UTF-8"?>
<svg version="1.1" viewBox="0 0 2048 594" width="441" height="128" xmlns="http://www.w3.org/2000/svg">
<path transform="translate(0)" d="m0 0h2048v594h-2048z" fill="#121111"/>
<path transform="translate(562,23)" d="m0 0h105l-4 17-22 104-25 118-24 113-11 51-3 14h218l35 1-2 12-11 52-4 17-1 2h-357l1-11 24-113 17-80 18-85 16-75 24-113z" fill="#A1F9A7"/>
<path transform="translate(423,58)" d="m0 0 36 7 55 12 9 3-2 6-12 27-18 41-20 45-11 25-14 32-11 25-16 36-11 25-15 34-16 33-13 23-11 18-7 10-9 12-11 13-10 11-17 13-19 10-18 6-14 3-10 1h-38l-23-3-23-5-23-7-20-9-13-7-14-11-13-13-10-15-5-11-1-7v-77l1-13 1-3 5-1 37 3 47 5 9 2 1 3-4 11-4 18v12l4 13 6 8 8 7 12 6 13 4 18 2h10l12-2 14-7 7-6 7-10 9-16 12-23 15-32 9-21 13-29 11-25 15-34 19-43 18-41 36-81 6-12z" fill="#FCFDFD"/>
<path transform="translate(924,222)" d="m0 0h126l21 3 21 7 14 9 9 10 8 15 4 14 1 11v18l-2 15-7 21-9 17-9 12-10 10-15 10-11 5-13 4-20 4-8 1h-86l-5 26-15 69-5 20-1 1h-63l4-20 39-182 17-79 5-20z" fill="#A1F9A7"/>
<path transform="translate(1778,301)" d="m0 0h25l16 3 14 5 15 9 9 8 9 12 7 14 5 19 1 8v32l-3 17-1 3-146 1-1 4 2 14 4 10 4 6 4 5 9 6 11 4 9 1 14-3 9-4 8-6 9-10 2-4 3-1 45 8 7 3-7 14-11 15-12 12-15 10-15 7-17 5-8 1h-28l-17-3-16-6-16-10-15-15-9-13-7-16-5-21-1-21 2-20 5-21 7-17 11-18 12-14 11-10 14-9 15-7 17-5z" fill="#A1F9A7"/>
<path transform="translate(1320,301)" d="m0 0h29l19 3 14 5 11 6 10 9 6 8 6 13 2 11v9l-3 24-15 70-3 17-1 10v14l3 20v4h-57l-3-9-1-13-11 9-13 8-14 7-11 3h-28l-10-3-11-6-10-8-8-9-7-14-3-14v-15l3-16 6-12 7-9 10-9 16-8 13-4 14-3 55-6 20-4 2-11v-14l-5-8-6-4-9-3h-16l-11 4-9 6-7 12h-15l-26-2-16-2-2-4 8-16 7-11 10-11 14-10 14-7 17-5z" fill="#A1F9A7"/>
<path transform="translate(1589,301)" d="m0 0h22l13 3 14 7 10 9 8 14 4 14v19l-6 31-17 77-9 39-3 10h-60l1-9 16-71 12-54 3-15v-13l-4-6-5-4-8-3h-12l-13 5-11 6-13 12-7 9-7 15-7 23-8 34-13 59-3 11-1 1h-60l8-39 16-74 18-84 5-20 2-1h56l1 3-5 19-1 4 14-10 15-9 17-8 11-3z" fill="#A0F8A6"/>
<path transform="translate(1194,222)" d="m0 0 42 1-19 90-17 80-18 84-10 45-2 2h-59l1-11 12-55 20-94 18-84 9-41 4-15 1-1z" fill="#A1F9A7"/>
<path transform="translate(1979,246)" d="m0 0h4v100l-1 7-3 9-19 91-2 10v12l2 4 7 3 15 1 1 1v24l-1 19-1 1-14 1h-25l-14-2-13-5-9-7-8-11-3-10v-19l3-19 19-88 4-16-28 1-1-4 9-42 1-1 27-1 4-15 4-16 11-8 15-9 15-10z" fill="#A1F9A7"/>
<path transform="translate(969,273)" d="m0 0h47l23 2 12 3 7 5 5 8 2 6v14l-3 10-5 10-7 9-10 7-12 5-25 4-12 1h-42l1-10 7-30 8-39 2-4z" fill="#121111"/>
<path transform="translate(1778,348)" d="m0 0h14l15 5 7 5 6 9 3 9 2 17-1 1h-90l1-6 7-15 6-9 10-8 10-5z" fill="#121111"/>
<path transform="translate(1346,427)" d="m0 0 1 3-6 20-7 14-4 5-10 7-14 5-13 2-9-2-9-5-5-7-2-10 2-8 6-7 14-7 22-5 29-4z" fill="#121111"/>
</svg>
